<?xml version="1.0" encoding="utf-8"?>
<!-- Generator: Adobe Illustrator 24.1.2, SVG Export Plug-In . SVG Version: 6.00 Build 0)  -->
<svg version="1.1" id="Layer_1" xmlns="http://www.w3.org/2000/svg" xmlns:xlink="http://www.w3.org/1999/xlink" x="0px" y="0px"
	 viewBox="0 0 566.93 566.93" style="enable-background:new 0 0 566.93 566.93;" xml:space="preserve">
<style type="text/css">
	.st0{fill:#252139;}
	.st1{fill:#F7B887;}
</style>
<g>
	<path class="st0" d="M472.43,531.59c-31.2-32.33-61.52-63.78-91.88-95.19c-44.33-45.85-88.75-91.62-133.04-137.51
		c-42.5-44.03-84.96-88.09-127.26-132.31c-13.52-14.14-20.31-31.31-20.63-50.97c-0.46-28.55-1.02-57.1-1.44-85.65
		c-0.03-2.04-1.01-4.3,0.8-6.48c28.43,29.39,56.79,58.69,85.13,88.02c71.97,74.47,143.93,148.95,215.89,223.43
		c17.12,17.72,34.26,35.42,51.3,53.22c12.26,12.81,20.28,28.22,20.83,45.78C473.16,466.05,472.43,498.23,472.43,531.59z"/>
	<path class="st1" d="M162.82,382c-8.34-0.7-18.8-2.54-28.92-9.36c-6.16-4.15-11.95-7.92-16.83-13.64
		c-17.27-20.21-20.52-42.88-10.46-66.74c8.12-19.26,22.92-32.79,43.77-37.44c35.06-7.82,72.54,13.39,78.55,52.63
		c1.79,11.66,1.46,23.78-3.81,35.08c-5.37,11.52-12.83,21.23-23.37,28.47C191.5,378.02,179.24,381.78,162.82,382z"/>
	<path class="st0" d="M467.2,77.26c-11.85-25.49-28.94-44.46-57.32-50.82c-3.24-0.72-6.43-0.55-9.65-0.68
		c-1.54-0.06-2.48-0.79-2.42-2.35c0.06-1.6,1.44-1.24,2.4-1.31c1.29-0.09,2.59-0.02,3.89-0.02c43.69,0.01,87.37,0.01,131.06,0.02
		c1.3,0,2.6-0.06,3.89,0.03c0.95,0.07,2.34-0.4,2.47,1.19c0.13,1.54-0.77,2.27-2.28,2.53c-4.45,0.74-8.99,1.19-13.31,2.42
		c-25.6,7.29-44.31,23.14-56.91,46.42c-0.4,0.73-0.79,1.47-1.23,2.18C467.69,77.04,467.43,77.11,467.2,77.26z"/>
	<path class="st0" d="M98.97,484.71c12.66,24.91,31.64,41.96,58.52,49.57c3.92,1.11,7.98,1.82,12.02,2.36
		c1.94,0.26,3.66,0.63,3.55,2.73c-0.13,2.39-2.3,1.2-3.49,1.2c-45.46,0.06-90.92,0.06-136.38-0.03c-1.27,0-3.72,1.36-3.78-1.62
		c-0.04-2.09,1.53-2.07,3.17-2.16c30.83-1.7,49.62-20.15,63.31-45.63C96.98,489.1,97.89,486.97,98.97,484.71z"/>
</g>
</svg>
